<?xml version="1.0" standalone="no"?>
<!DOCTYPE svg PUBLIC "-//W3C//DTD SVG 20010904//EN"
 "http://www.w3.org/TR/2001/REC-SVG-20010904/DTD/svg10.dtd">
<svg version="1.0" xmlns="http://www.w3.org/2000/svg"
 width="648.000000pt" height="708.000000pt" viewBox="0 0 648.000000 708.000000"
 preserveAspectRatio="xMidYMid meet">
<metadata>
Created by potrace 1.16, written by Peter Selinger 2001-2019
</metadata>
<g transform="translate(0.000000,708.000000) scale(0.100000,-0.100000)"
fill="#000000" stroke="none">
<path d="M5323 5621 c3 -13 1 -35 -4 -49 -6 -15 -7 -23 -3 -19 4 4 14 1 22 -6
13 -10 14 -9 7 2 -5 9 -4 12 3 7 15 -9 11 -43 -5 -43 -7 0 -13 6 -13 14 0 7
-5 13 -11 13 -5 0 -8 -4 -4 -9 3 -6 -3 -14 -12 -20 -13 -7 -23 -5 -38 7 -11 9
-17 13 -13 8 4 -5 -2 -20 -12 -34 -27 -33 -26 -51 3 -45 14 3 18 2 10 -4 -10
-7 78 -74 196 -148 44 -28 107 -70 111 -76 3 -3 14 -9 24 -13 19 -6 18 -7 -2
-26 -12 -11 -28 -20 -37 -20 -8 0 -15 -7 -15 -15 0 -8 3 -15 8 -15 7 0 77 18
100 25 9 4 1 23 -29 65 -23 33 -45 60 -49 60 -4 0 -7 6 -7 13 0 15 -93 157
-103 157 -4 0 -10 9 -13 20 -3 11 -10 20 -16 20 -17 0 -13 -13 14 -44 38 -44
30 -46 -11 -3 -35 35 -36 38 -19 51 18 13 18 14 -2 24 -11 6 -24 8 -28 4 -5
-4 -5 -1 -1 6 4 7 13 10 19 6 7 -3 4 1 -5 9 -10 8 -15 16 -13 19 3 3 -5 16
-17 29 -13 14 -24 28 -25 33 -1 4 -5 11 -9 14 -4 4 -4 -4 -1 -17z"/>
<path d="M5654 5093 c1 -21 -2 -44 -8 -51 -5 -8 -7 -78 -3 -173 4 -115 3 -159
-5 -157 -6 2 -13 17 -14 34 -2 16 -4 34 -5 39 0 6 2 26 5 45 6 34 5 34 -8 -5
-9 -27 -10 -46 -4 -58 14 -27 4 -30 -23 -8 -13 11 -21 20 -17 21 3 0 -7 14
-23 32 -17 17 -28 37 -25 45 3 8 2 12 -3 9 -4 -3 -23 15 -40 39 -18 25 -35 45
-37 45 -3 0 10 -21 29 -47 18 -27 60 -86 92 -133 32 -47 65 -93 75 -103 22
-23 243 -78 282 -70 22 4 26 9 17 19 -6 7 -17 10 -25 7 -14 -5 -36 34 -27 50
2 4 0 7 -6 7 -6 0 -10 15 -10 33 1 22 -24 79 -82 189 -46 86 -87 154 -91 152
-4 -3 -5 3 -1 12 5 13 3 15 -7 9 -9 -5 -11 -4 -6 3 8 13 -10 52 -23 52 -4 0
-7 -17 -7 -37z"/>
<path d="M5991 3653 c6 -34 -3 -65 -20 -70 -15 -4 -18 -13 -15 -46 1 -23 0
-32 -2 -19 -11 50 -48 9 -42 -48 4 -45 2 -47 -24 -23 -16 15 -18 15 -18 0 0
-11 18 -21 58 -32 31 -9 70 -20 85 -25 36 -12 42 3 32 73 -4 29 -7 70 -7 92 1
26 -1 35 -7 26 -7 -11 -10 -9 -15 7 -4 11 -6 24 -5 28 4 22 -2 44 -11 44 -5 0
-9 -3 -9 -7z"/>
<path d="M5887 2986 c-9 -24 -9 -28 3 -21 6 4 7 -1 3 -11 -6 -16 -8 -15 -16 4
-10 21 -11 21 -21 3 -44 -75 -63 -101 -73 -101 -21 0 -24 -17 -10 -62 18 -56
19 -88 2 -88 -13 0 -29 -29 -21 -37 3 -3 20 -1 38 3 18 4 36 7 40 6 9 -2 38
99 32 110 -3 4 0 8 6 8 7 0 10 7 6 15 -3 8 -1 15 5 15 7 0 9 10 5 24 -4 15 0
28 10 36 8 7 13 19 10 26 -3 7 0 14 5 16 7 2 6 16 -3 38 -12 28 -15 31 -21 16z"/>
</g>
</svg>
